<?xml version="1.0" encoding="UTF-8"?>
<svg viewBox="0 0 12 17" version="1.1" xmlns="http://www.w3.org/2000/svg" xmlns:xlink="http://www.w3.org/1999/xlink">
  <!-- Generator: Sketch 47.1 (45422) - http://www.bohemiancoding.com/sketch -->
  <title>Page 1</title>
  <desc>Created with Sketch.</desc>
  <defs></defs>
  <g id="Symbols" stroke="none" stroke-width="1" fill="none" fill-rule="evenodd">
    <g id="Nav-Bar" transform="translate(-20.000000, -12.000000)" fill="#FFFFFF">
      <g id="Page-1" transform="translate(20.000000, 12.500000)">
        <path d="M10.8742857,15.5499429 C9.40114286,15.5499429 8.47428571,15.4836571 6.80114286,15.0630857 C4.41828571,14.4642286 2.456,13.1899429 1.27885714,11.4722286 C-0.459428571,8.93622857 -0.424,6.0768 1.37485714,3.62651429 C2.57942857,1.98537143 4.56114286,0.810514286 6.95428571,0.317942857 C8.56228571,-0.0134857143 9.46742857,-0.00662857143 10.8365714,0.00251428571 C11.0834286,0.0048 11.3497143,0.00708571429 11.6422857,0.00708571429 L11.6422857,3.69051429 C11.3394286,3.69051429 11.0651429,3.68822857 10.8114286,3.68594286 C9.55428571,3.6768 8.92342857,3.67222857 7.696,3.92594286 C6.19885714,4.23337143 5.008,4.90194286 4.344,5.80594286 C3.48,6.98308571 3.47085714,8.15565714 4.31771429,9.3888 C4.98628571,10.3648 6.18628571,11.1110857 7.69828571,11.4905143 C9.25714286,11.8825143 9.89028571,11.8779429 11.5782857,11.8630857 L11.608,15.5465143 C11.3474286,15.5488 11.104,15.5499429 10.8742857,15.5499429" id="Fill-1"></path>
      </g>
    </g>
  </g>
</svg>
